<mxfile host="app.diagrams.net" agent="Mozilla/5.0 (Windows NT 10.0; Win64; x64) AppleWebKit/537.36 (KHTML, like Gecko) Chrome/133.0.0.0 Safari/537.36 Edg/133.0.0.0" version="27.0.6">
  <diagram name="Página-1" id="yNQEA4Awn0c_LnklZbiY">
    <mxGraphModel dx="1630" dy="892" grid="1" gridSize="10" guides="1" tooltips="1" connect="1" arrows="1" fold="1" page="1" pageScale="1" pageWidth="827" pageHeight="1169" math="0" shadow="0">
      <root>
        <mxCell id="0" />
        <mxCell id="1" parent="0" />
        <mxCell id="mTSIaieYIJ6_aE2V1SBk-18" value="&lt;font style=&quot;font-size: 14px;&quot;&gt;Médico&lt;/font&gt;" style="swimlane;whiteSpace=wrap;html=1;" vertex="1" parent="1">
          <mxGeometry x="400" y="240" width="200" height="200" as="geometry" />
        </mxCell>
        <mxCell id="mTSIaieYIJ6_aE2V1SBk-19" value="&lt;font style=&quot;font-size: 14px;&quot;&gt;id_medico&lt;/font&gt;" style="text;html=1;align=center;verticalAlign=middle;resizable=0;points=[];autosize=1;strokeColor=none;fillColor=none;" vertex="1" parent="mTSIaieYIJ6_aE2V1SBk-18">
          <mxGeometry x="50" y="28" width="90" height="30" as="geometry" />
        </mxCell>
        <mxCell id="mTSIaieYIJ6_aE2V1SBk-20" value="&lt;font style=&quot;font-size: 14px;&quot;&gt;nome_medico&lt;/font&gt;" style="text;html=1;align=center;verticalAlign=middle;resizable=0;points=[];autosize=1;strokeColor=none;fillColor=none;" vertex="1" parent="mTSIaieYIJ6_aE2V1SBk-18">
          <mxGeometry x="45" y="58" width="110" height="30" as="geometry" />
        </mxCell>
        <mxCell id="mTSIaieYIJ6_aE2V1SBk-21" value="&lt;span style=&quot;background-color: transparent; color: light-dark(rgb(0, 0, 0), rgb(255, 255, 255));&quot;&gt;&lt;font style=&quot;font-size: 14px;&quot;&gt;cpf_Médico&lt;/font&gt;&lt;/span&gt;" style="text;html=1;align=center;verticalAlign=middle;resizable=0;points=[];autosize=1;strokeColor=none;fillColor=none;" vertex="1" parent="mTSIaieYIJ6_aE2V1SBk-18">
          <mxGeometry x="50" y="88" width="100" height="30" as="geometry" />
        </mxCell>
        <mxCell id="mTSIaieYIJ6_aE2V1SBk-22" value="De acordo com o" style="text;html=1;align=center;verticalAlign=middle;resizable=0;points=[];autosize=1;strokeColor=none;fillColor=none;" vertex="1" parent="mTSIaieYIJ6_aE2V1SBk-18">
          <mxGeometry x="45" y="130" width="110" height="30" as="geometry" />
        </mxCell>
        <mxCell id="mTSIaieYIJ6_aE2V1SBk-23" value="De acordo com o" style="text;html=1;align=center;verticalAlign=middle;resizable=0;points=[];autosize=1;strokeColor=none;fillColor=none;" vertex="1" parent="1">
          <mxGeometry x="455" y="368" width="110" height="30" as="geometry" />
        </mxCell>
        <mxCell id="mTSIaieYIJ6_aE2V1SBk-27" value="ENDEREÇO" style="swimlane;fontStyle=0;childLayout=stackLayout;horizontal=1;startSize=30;horizontalStack=0;resizeParent=1;resizeParentMax=0;resizeLast=0;collapsible=1;marginBottom=0;whiteSpace=wrap;html=1;" vertex="1" parent="1">
          <mxGeometry x="40" y="240" width="160" height="270" as="geometry" />
        </mxCell>
        <mxCell id="mTSIaieYIJ6_aE2V1SBk-28" value="id_endereço" style="text;strokeColor=none;fillColor=none;align=center;verticalAlign=middle;spacingLeft=4;spacingRight=4;overflow=hidden;points=[[0,0.5],[1,0.5]];portConstraint=eastwest;rotatable=0;whiteSpace=wrap;html=1;" vertex="1" parent="mTSIaieYIJ6_aE2V1SBk-27">
          <mxGeometry y="30" width="160" height="30" as="geometry" />
        </mxCell>
        <mxCell id="mTSIaieYIJ6_aE2V1SBk-29" value="logradouro&amp;nbsp;" style="text;strokeColor=none;fillColor=none;align=center;verticalAlign=middle;spacingLeft=4;spacingRight=4;overflow=hidden;points=[[0,0.5],[1,0.5]];portConstraint=eastwest;rotatable=0;whiteSpace=wrap;html=1;" vertex="1" parent="mTSIaieYIJ6_aE2V1SBk-27">
          <mxGeometry y="60" width="160" height="30" as="geometry" />
        </mxCell>
        <mxCell id="mTSIaieYIJ6_aE2V1SBk-30" value="CEP" style="text;strokeColor=none;fillColor=none;align=center;verticalAlign=middle;spacingLeft=4;spacingRight=4;overflow=hidden;points=[[0,0.5],[1,0.5]];portConstraint=eastwest;rotatable=0;whiteSpace=wrap;html=1;" vertex="1" parent="mTSIaieYIJ6_aE2V1SBk-27">
          <mxGeometry y="90" width="160" height="30" as="geometry" />
        </mxCell>
        <mxCell id="mTSIaieYIJ6_aE2V1SBk-31" value="bairro" style="text;strokeColor=none;fillColor=none;align=center;verticalAlign=middle;spacingLeft=4;spacingRight=4;overflow=hidden;points=[[0,0.5],[1,0.5]];portConstraint=eastwest;rotatable=0;whiteSpace=wrap;html=1;" vertex="1" parent="mTSIaieYIJ6_aE2V1SBk-27">
          <mxGeometry y="120" width="160" height="30" as="geometry" />
        </mxCell>
        <mxCell id="mTSIaieYIJ6_aE2V1SBk-32" value="cidade" style="text;strokeColor=none;fillColor=none;align=center;verticalAlign=middle;spacingLeft=4;spacingRight=4;overflow=hidden;points=[[0,0.5],[1,0.5]];portConstraint=eastwest;rotatable=0;whiteSpace=wrap;html=1;" vertex="1" parent="mTSIaieYIJ6_aE2V1SBk-27">
          <mxGeometry y="150" width="160" height="30" as="geometry" />
        </mxCell>
        <mxCell id="mTSIaieYIJ6_aE2V1SBk-33" value="estado" style="text;strokeColor=none;fillColor=none;align=center;verticalAlign=middle;spacingLeft=4;spacingRight=4;overflow=hidden;points=[[0,0.5],[1,0.5]];portConstraint=eastwest;rotatable=0;whiteSpace=wrap;html=1;" vertex="1" parent="mTSIaieYIJ6_aE2V1SBk-27">
          <mxGeometry y="180" width="160" height="30" as="geometry" />
        </mxCell>
        <mxCell id="mTSIaieYIJ6_aE2V1SBk-35" value="medico_fk" style="text;strokeColor=none;fillColor=none;align=center;verticalAlign=middle;spacingLeft=4;spacingRight=4;overflow=hidden;points=[[0,0.5],[1,0.5]];portConstraint=eastwest;rotatable=0;whiteSpace=wrap;html=1;" vertex="1" parent="mTSIaieYIJ6_aE2V1SBk-27">
          <mxGeometry y="210" width="160" height="30" as="geometry" />
        </mxCell>
        <mxCell id="mTSIaieYIJ6_aE2V1SBk-36" value="paciente-fk" style="text;strokeColor=none;fillColor=none;align=center;verticalAlign=middle;spacingLeft=4;spacingRight=4;overflow=hidden;points=[[0,0.5],[1,0.5]];portConstraint=eastwest;rotatable=0;whiteSpace=wrap;html=1;" vertex="1" parent="mTSIaieYIJ6_aE2V1SBk-27">
          <mxGeometry y="240" width="160" height="30" as="geometry" />
        </mxCell>
        <mxCell id="mTSIaieYIJ6_aE2V1SBk-37" value="MÉDICO" style="swimlane;fontStyle=0;childLayout=stackLayout;horizontal=1;startSize=30;horizontalStack=0;resizeParent=1;resizeParentMax=0;resizeLast=0;collapsible=1;marginBottom=0;whiteSpace=wrap;html=1;" vertex="1" parent="1">
          <mxGeometry x="240" y="240" width="140" height="120" as="geometry" />
        </mxCell>
        <mxCell id="mTSIaieYIJ6_aE2V1SBk-38" value="id_médico" style="text;strokeColor=none;fillColor=none;align=center;verticalAlign=middle;spacingLeft=4;spacingRight=4;overflow=hidden;points=[[0,0.5],[1,0.5]];portConstraint=eastwest;rotatable=0;whiteSpace=wrap;html=1;" vertex="1" parent="mTSIaieYIJ6_aE2V1SBk-37">
          <mxGeometry y="30" width="140" height="30" as="geometry" />
        </mxCell>
        <mxCell id="mTSIaieYIJ6_aE2V1SBk-39" value="Item 2" style="text;strokeColor=none;fillColor=none;align=left;verticalAlign=middle;spacingLeft=4;spacingRight=4;overflow=hidden;points=[[0,0.5],[1,0.5]];portConstraint=eastwest;rotatable=0;whiteSpace=wrap;html=1;" vertex="1" parent="mTSIaieYIJ6_aE2V1SBk-37">
          <mxGeometry y="60" width="140" height="30" as="geometry" />
        </mxCell>
        <mxCell id="mTSIaieYIJ6_aE2V1SBk-40" value="Item 3" style="text;strokeColor=none;fillColor=none;align=left;verticalAlign=middle;spacingLeft=4;spacingRight=4;overflow=hidden;points=[[0,0.5],[1,0.5]];portConstraint=eastwest;rotatable=0;whiteSpace=wrap;html=1;" vertex="1" parent="mTSIaieYIJ6_aE2V1SBk-37">
          <mxGeometry y="90" width="140" height="30" as="geometry" />
        </mxCell>
      </root>
    </mxGraphModel>
  </diagram>
</mxfile>
